<?xml version="1.0" standalone="no"?>
<!DOCTYPE svg PUBLIC "-//W3C//DTD SVG 1.1//EN" "http://www.w3.org/Graphics/SVG/1.1/DTD/svg11.dtd" >
<svg xmlns="http://www.w3.org/2000/svg">
<metadata>Generated by IcoMoon</metadata>
<defs>
<font id="wk-times-icon" horiz-adv-x="1024">
<font-face units-per-em="1024" ascent="960" descent="-64" />
<missing-glyph horiz-adv-x="1024" />
<glyph unicode="&#x20;" horiz-adv-x="512" d="" />
<glyph unicode="&#xe900;" glyph-name="camera" d="M963.584 718.336c17.072 0 31.4-5.632 43.008-16.888 11.6-11.264 17.408-25.432 17.408-42.504v-572.416c0-16.392-5.808-30.552-17.408-42.504-11.608-11.944-25.936-17.92-43.008-17.92h-904.192c-16.384 0-30.376 5.976-41.984 17.92s-17.408 26.12-17.408 42.504v572.416c0 17.072 5.8 31.232 17.408 42.504 11.608 11.256 25.6 16.888 41.984 16.888h221.184l20.48 61.448c0 8.184 4.784 17.576 14.336 28.16 9.56 10.576 20.656 20.48 33.28 29.696s25.768 16.896 39.424 23.040c13.656 6.152 24.576 9.216 32.768 9.216h210.952c8.184 0 19.112-3.072 32.768-9.216s26.968-13.824 39.936-23.040 24.232-19.12 33.792-29.696 14.336-19.968 14.336-28.16l19.456-61.448h191.48zM489.472 779.784c-10.92 0-19.968-2.904-27.136-8.712-7.168-5.8-10.752-13.144-10.752-22.016 0-8.184 3.584-15.36 10.752-21.504 7.168-6.152 16.216-9.216 27.136-9.216h74.744c10.928 0 19.968 3.072 27.144 9.216 7.168 6.144 10.752 13.312 10.752 21.504 0 8.872-3.576 16.216-10.752 22.016-7.168 5.808-16.208 8.712-27.144 8.712h-74.744zM512 146.944c32.768 0 63.832 6.312 93.184 18.944 29.352 12.624 54.952 29.856 76.8 51.712 21.84 21.84 39.080 47.448 51.712 76.8s18.944 60.76 18.944 94.208-6.312 64.68-18.944 93.696-29.864 54.272-51.712 75.776c-21.84 21.504-47.448 38.568-76.8 51.2-29.36 12.632-60.424 18.944-93.184 18.944-33.448 0-64.848-6.312-94.208-18.944s-54.96-29.696-76.8-51.2c-21.84-21.504-39.080-46.76-51.712-75.776s-18.944-60.24-18.944-93.696 6.32-64.856 18.944-94.208 29.864-54.952 51.712-76.8c21.84-21.848 47.448-39.088 76.8-51.712 29.36-12.632 60.76-18.944 94.208-18.944zM512 568.832c25.256 0 48.816-4.784 70.656-14.336 21.84-9.56 40.96-22.528 57.344-38.912s29.184-35.504 38.4-57.344c9.216-21.848 13.824-45.056 13.824-69.632 0-25.256-4.6-48.984-13.824-71.168-9.208-22.184-22.016-41.472-38.4-57.848s-35.504-29.352-57.344-38.912-45.4-14.344-70.656-14.344-48.816 4.776-70.656 14.336-40.96 22.528-57.344 38.912-29.352 35.664-38.912 57.848c-9.56 22.184-14.336 45.912-14.336 71.168 0 24.576 4.776 47.784 14.336 69.632 9.552 21.84 22.528 40.96 38.912 57.344s35.504 29.352 57.344 38.912c21.84 9.568 45.4 14.344 70.656 14.344z" />
<glyph unicode="&#xe901;" glyph-name="arrow-left" d="M706.848 37.344l26.464 26.496-384.128 384.16 384.128 384.16-26.464 26.496-416.16-410.656z" />
<glyph unicode="&#xe902;" glyph-name="arrow-right" d="M317.152 37.344l-26.464 26.496 384.128 384.16-384.128 384.16 26.464 26.496 416.16-410.656z" />
<glyph unicode="&#xe903;" glyph-name="auth-center" d="M512 918.067v-36.454 38.059c-91.477-163.328-396.885-157.73-396.885-157.73l26.897-570.453c43.076-190.72 369.988-213.538 369.988-213.538v4.796-6.434c0 0 326.912 22.835 369.971 213.504l26.897 570.505c0.034 0.017-305.374-5.598-396.868 157.747v0zM453.376 235.11l-186.761 186.743 67.635 67.686 125.815-125.764 236.322 236.322 60.996-60.996-304.009-303.991z" />
<glyph unicode="&#xe904;" glyph-name="home" d="M801.911 386.389c0 11.298-9.148 20.48-20.446 20.48h-0.017c-11.298 0-20.48-9.131-20.48-20.446l-0.051-210.569c0-1.297 0.102-2.645 0.358-3.908 0.324-1.502 1.024-10.701-2.918-15.445-3.413-4.198-11.127-5.052-16.998-5.052-36.403 0-113.579 0-150.409-0.051l-0.87 153.958c0.853 7.373 2.304 31.505-12.271 48.555-6.281 7.356-17.903 16.077-37.53 16.077h-2.953c-0.119 0-0.171 0-0.273 0v0c0 0-7.953 0-24.747 0s-24.747 0-24.747 0h-0.017c-0.051 0-0.119 0-0.205 0h-2.987c-19.627 0-31.232-8.755-37.495-16.077-14.575-17.050-13.124-41.199-12.271-48.555l-0.905-153.958c-36.796 0.051-113.971 0.051-150.426 0.051-5.82 0-13.449 0.853-16.896 4.949-3.755 4.454-3.396 12.851-2.97 15.599 0.324 1.399 0.375 2.406 0.375 3.857l-0.102 210.551c0 11.298-9.131 20.446-20.446 20.446v0c-11.298 0-20.48-9.148-20.446-20.48l0.051-208.981c-1.024-7.458-2.526-29.457 11.878-46.95 7.492-9.079 22.033-20.002 48.572-20.002 48.794 0 170.803 0 170.803 0v0c11.23 0 20.395 9.097 20.446 20.395l1.024 175.616c0 1.195-0.051 2.099-0.256 3.226-0.7 5.171-0.154 14.353 2.697 17.647 1.007 1.143 3.123 1.741 6.383 1.741h55.876c3.226 0 5.376-0.58 6.4-1.741 2.85-3.277 3.413-12.442 2.679-17.647-0.205-1.126-0.256-2.031-0.256-3.226l1.007-175.616c0.085-11.247 9.199-20.395 20.497-20.395 0 0 121.958 0 170.752 0 26.624 0 41.097 10.923 48.623 20.002 14.404 17.493 12.902 39.492 11.861 46.95l0.102 208.998zM889.242 430.967l-293.888 315.836c-4.352 5.035-33.775 37.222-77.483 38.707-31.232 1.075-61.082-13.278-88.798-42.667-73.83-78.114-292.028-309.436-294.229-311.774-7.748-8.209-7.407-21.18 0.853-28.928 8.175-7.731 21.129-7.407 28.894 0.87 2.202 2.304 220.399 233.591 294.195 311.74 19.251 20.326 38.502 30.379 57.327 29.867 27.221-0.768 47.155-23.347 48.128-24.508 0.341-0.358 0.478-0.529 0.768-0.87l294.195-316.126c3.874-4.198 9.301-6.554 14.967-6.554 5.188 0 10.189 1.929 13.943 5.478 8.397 7.697 8.841 20.651 1.126 28.928z" />
<glyph unicode="&#xe905;" glyph-name="doubt" d="M512 928c-265.088 0-480-214.88-480-480s214.912-480.032 480-480.032 480 214.944 480 480.032c0 265.12-214.912 480-480 480zM544.672 149.216h-81.728v85.632h81.728v-85.632zM613.376 455.52c-56.704-39.52-81.76-90.048-75.232-151.52h-71.936c-6.528 70.272 19.616 130.624 78.464 181.152 2.144 2.144 5.44 5.44 9.824 9.888 45.792 39.52 65.408 74.624 58.88 105.376-6.56 63.648-40.384 96.608-101.376 98.816-74.112 0-111.2-45.024-111.2-135.040h-75.2c0 74.624 22.88 127.328 68.672 158.080 34.848 26.336 75.232 39.52 120.992 39.52 111.168-6.592 168.896-61.504 173.28-164.672 4.352-43.936-20.736-91.136-75.168-141.6z" />
<glyph unicode="&#xe907;" glyph-name="loan" d="M512 806.4c-197.939 0-358.4-160.461-358.4-358.4s160.461-358.4 358.4-358.4 358.4 160.461 358.4 358.4-160.461 358.4-358.4 358.4zM421.495 659.012c5.837-1.092 11.639-2.662 17.374-4.42 7.663-2.321 13.926-0.171 20.036 4.659 5.171 4.079 10.547 8.448 16.606 10.752 8.038 3.089 15.633 0.444 22.033-5.615 3.43-3.243 7.424-6.007 11.435-8.499 1.075-0.666 3.533-0.307 4.659 0.529 3.26 2.441 6.229 5.274 9.267 8.038 10.94 9.933 21.982 8.841 34.56-0.7 0.631-0.478 1.229-1.058 1.792-1.655 8.329-8.892 17.869-10.513 28.877-5.222 5.052 2.441 10.342 4.13 16.128 1.997 6.98-2.543 10.308-8.755 7.287-15.565-1.741-3.874-4.147-8.209-7.526-10.325-13.329-8.26-21.828-20.719-30.293-33.229-3.499-5.188-6.673-10.633-9.728-16.043-1.707-2.987-3.669-4.301-7.407-4.233-15.394 0.29-30.805 0.119-46.199 0.119-15.701 0-31.369 0.051-47.036-0.051-2.714-0.017-4.369 0.666-5.871 3.157-5.803 9.404-11.827 18.637-17.937 27.802-5.888 8.892-14.251 15.292-22.204 22.135-3.482 2.987-6.605 6.963-8.448 11.127-3.738 8.499 3.413 16.981 12.595 15.241zM668.979 306.074c-15.36-29.901-39.424-50.295-69.632-63.932-22.733-10.257-46.609-15.428-71.475-16.964-23.296-1.434-46.421-0.495-68.966 5.53-51.507 13.773-90.453 42.94-110.199 93.867-14.097 36.335-11.486 72.636 3.004 108.356 10.103 24.849 25.873 45.739 45.722 63.505 20.275 18.125 39.817 36.813 56.678 58.231 0.956 1.178 3.209 1.946 4.83 1.963 17.34 0.137 34.628 0.085 51.968 0.085 17.169 0 34.372 0.085 51.541-0.102 1.826-0.034 4.25-1.058 5.393-2.441 15.94-18.893 33.229-36.454 52.105-52.429 19.456-16.538 37.035-34.645 48.828-57.634 9.796-19.098 14.933-39.441 15.701-60.809 0.956-26.965-3.004-52.975-15.497-77.227zM458.035 407.467h36.437l-46.729 72.892h24.32l42.069-70.076 42.086 70.076h23.364l-45.807-72.892h36.437v-13.995h-45.807v-20.565h45.807v-13.124h-45.807v-43.93h-21.504v43.93h-44.868v13.124h44.868v20.565h-44.868v13.995z" />
<glyph unicode="&#xe908;" glyph-name="location-mark" d="M752.555 382.498c31.181 55.706 44.169 100.011 44.169 138.052 0 156.996-127.659 284.723-284.706 284.723-156.962 0-284.74-127.693-284.74-284.672 0-63.095 41.762-151.296 124.177-262.127 62.123-83.575 125.867-150.63 129.519-154.487 7.936-8.448 19.2-13.278 31.010-13.278h0.478c11.998 0 23.586 5.325 31.727 14.609l16.777 19.456c0.034 0 0.034 0 0.034 0 11.913 13.346 71.936 83.183 74.445 86.135 0.597 0.683 1.075 1.399 1.587 2.133 0.188 0.256 0.358 0.529 0.512 0.819 0.034 0.068 0.102 0.137 0.119 0.239 0.188 0.307 0.341 0.597 0.478 0.973v0c3.499 7.407 1.826 16.503-4.659 22.084-7.782 6.724-19.541 5.803-26.249-1.98-0.137-0.171-3.703-4.335-9.216-10.752l-81.886-94.583c-0.495-0.563-1.86-1.929-3.686-1.929h-0.495c-1.126 0-2.679 0.273-3.874 1.57l-0.171 0.188c-2.662 2.748-65.399 68.625-126.686 151.023-76.425 102.793-116.821 185.788-116.821 239.923 0 136.465 111.002 247.467 247.518 247.467 136.448 0 247.484-111.036 247.484-247.518 0-21.999-6.298-48.265-18.773-78.438-0.7-1.007-1.365-2.065-1.826-3.243-29.867-66.594-77.807-134.468-78.336-135.27-0.341-0.41-0.58-0.87-0.87-1.297 0-0.034 0-0.068-0.068-0.137v0c-4.779-8.192-2.611-18.859 5.325-24.508 3.277-2.304 7.049-3.447 10.735-3.447 5.854 0 11.588 2.748 15.223 7.851 0.358 0.478 2.065 2.901 4.83 6.912v0c16.060 21.845 28.86 43.503 41.097 65.246 5.205 8.96 10.462 18.432 15.667 28.16 0.154 0.068 0.154 0.102 0.154 0.102zM367.411 509.73c0-38.656 15.036-74.974 42.308-102.298 27.29-27.307 63.59-42.342 102.229-42.342 79.735 0 144.623 64.87 144.623 144.64 0 79.701-64.887 144.572-144.623 144.572s-144.538-64.87-144.538-144.572zM619.964 509.73c0-59.563-48.452-108.032-107.981-108.032-59.494 0-107.947 48.452-107.947 108.032 0 59.511 48.452 107.93 107.947 107.93 59.529-0.017 107.981-48.418 107.981-107.93z" />
<glyph unicode="&#xe909;" glyph-name="message" d="M512 781.739c-179.132 0-324.284-125.508-324.284-279.825 0-100.676 64.068-194.833 166.059-244.514 10.462-5.239 22.238 0 26.146 10.428 3.925 9.165 0 20.975-9.148 24.866-88.917 41.83-145.135 122.897-145.135 209.22 0 133.342 129.451 240.589 286.362 240.589 156.894 0 286.327-107.196 286.327-240.589 0-132.045-128.102-240.623-286.327-240.623-6.537 0-26.146-13.090-100.676-65.365v15.701c1.314 10.411-7.834 19.575-18.295 20.907s-19.61-7.834-20.924-18.261l-2.611-52.275c-1.314-16.998 16.998-27.426 31.386-16.998 36.608 26.112 94.14 64.068 111.138 74.513 2.611 1.297 5.222 2.594 9.165 2.594 173.875 5.239 315.136 129.434 315.136 281.156-0.051 154.266-145.186 278.477-324.318 278.477zM360.653 528.964c-17.562 0-32.427-14.865-32.427-32.427 0-17.545 14.865-32.41 32.427-32.41s32.427 14.865 32.427 32.41c0 17.562-14.848 32.427-32.427 32.427zM545.775 496.538c0 17.545-14.865 32.41-32.41 32.41-17.562 0-32.427-14.865-32.427-32.41 0-17.562 14.865-32.427 32.427-32.427 17.527-0.017 32.41 14.848 32.41 32.427zM697.105 496.538c0 17.545-14.831 32.41-32.393 32.41-17.545 0-32.41-14.865-32.41-32.41 0-17.562 14.865-32.427 32.41-32.427 18.859-0.017 32.393 14.848 32.393 32.427z" />
<glyph unicode="&#xe90a;" d="M512 781.739c-179.132 0-324.284-125.508-324.284-279.825 0-100.676 64.068-194.833 166.042-244.514 10.462-5.239 22.255 0 26.146 10.445 3.908 9.148 0 20.958-9.148 24.849-88.9 41.83-145.135 122.897-145.135 209.22 0 133.342 129.434 240.589 286.345 240.589 156.877 0 286.345-107.196 286.345-240.589 0-132.045-128.137-240.606-286.345-240.606-6.554 0-26.146-13.090-100.676-65.365v15.684c1.314 10.428-7.834 19.593-18.295 20.907-10.445 1.331-19.593-7.834-20.941-18.261l-2.594-52.292c-1.297-16.998 16.998-27.426 31.369-16.998 36.625 26.129 94.174 64.068 111.172 74.53 2.594 1.297 5.239 2.594 9.148 2.594 173.875 5.239 315.136 129.434 315.136 281.156 0 154.266-145.135 278.477-324.284 278.477z" />
<glyph unicode="&#xe90b;" d="M360.67 528.964c-17.527 0-32.393-14.865-32.393-32.427 0-17.545 14.865-32.41 32.393-32.41 17.562 0 32.41 14.865 32.41 32.41 0 17.562-14.848 32.427-32.41 32.427zM545.792 496.538c0 17.545-14.865 32.41-32.427 32.41s-32.427-14.865-32.427-32.41c0-17.562 14.865-32.427 32.427-32.427s32.427 14.848 32.427 32.427zM697.139 496.538c0 17.545-14.865 32.41-32.427 32.41s-32.427-14.865-32.427-32.41c0-17.562 14.865-32.427 32.427-32.427 18.893-0.017 32.427 14.848 32.427 32.427z" />
<glyph unicode="&#xe90c;" d="M935.885 637.764c0-70.692-57.308-128-128-128s-128 57.308-128 128c0 70.692 57.308 128 128 128s128-57.308 128-128z" />
<glyph unicode="&#xe90d;" glyph-name="my-self" d="M671.095 358.758c-6.895-9.353-2.406-21.299 6.673-28.501 66.799-52.975 105.097-133.444 105.097-220.655 0-11.776 8.806-24.542 20.207-24.542 11.435 0 17.493 9.626 17.493 21.402 0 100.693-44.271 193.502-121.361 254.601-8.841 7.014-21.333 6.81-28.109-2.304v0zM221.713 84.992c11.401 0 20.702 9.626 20.702 21.419 0 153.020 113.101 277.299 260.352 277.299 113.442 0 215.006 95.949 215.006 213.658 0 117.76-92.297 213.623-205.756 213.623s-205.807-95.846-205.807-213.623c0-77.926 41.933-150.221 107.742-187.426-124.501-43.452-210.5-166.537-210.5-303.514 0-11.793 6.793-21.436 18.261-21.436v0zM512 771.567c92.45 0 167.697-78.148 167.697-174.199 0-96.017-75.196-174.148-167.697-174.148-92.399 0-167.629 78.131-167.629 174.148 0 96.034 75.23 174.199 167.629 174.199v0z" />
<glyph unicode="&#xe90e;" glyph-name="refund" d="M512 806.4c-197.922 0-358.4-160.461-358.4-358.4s160.478-358.4 358.4-358.4 358.4 160.461 358.4 358.4-160.478 358.4-358.4 358.4zM674.748 237.329l-4.284-4.062-6.775-0.239c-6.468 0-12.288 3.567-15.923 9.694-54.477 90.231-139.486 76.834-172.288 76.39v-54.153c0-24.166-15.701-26.044-20.429-26.044-9.148 0-16.179 5.854-18.773 8.311l-113.067 118.255c-1.638 1.451-13.568 12.868-13.568 26.351 0 12.851 9.609 23.825 11.537 25.873l112.162 111.138 2.731 1.092c11.674 4.625 21.845 3.106 28.211-3.465 5.478-5.734 5.649-12.834 5.342-16.162l2.031-67.004c199.1-7.834 206.302-158.276 207.667-193.195 0.529-4.762-1.178-9.438-4.574-12.783zM712.175 571.972l-0.256-33.997-52.855-0.273v-16.964h53.163v-34.833l-53.163 0.273v-60.86h-52.070v60.297h-53.402v35.174h53.402v17.425l-53.385 0.239v33.519h39.834l-37.103 65.314c-1.826 2.185-5.257 8.482-5.257 8.482l39.27 16.725 42.121-76.937 46.234 77.466 35.703-21.333-42.906-69.734h40.67z" />
<glyph unicode="&#xe90f;" glyph-name="serch-glass" d="M823.467 167.407l-141.193 141.21c41.335 48.401 66.27 111.241 66.27 179.849 0 52.036-14.575 100.591-39.526 142.182 0 0-9.455 18.5-31.095 20.668-16.538 1.673-15.872-20.668-15.872-20.668 11.435-15.309 21.214-31.778 28.74-49.493 12.425-29.355 18.705-60.501 18.705-92.672 0-32.154-6.281-63.317-18.705-92.672-11.998-28.331-29.167-53.811-51.029-75.691s-47.377-39.031-75.725-51.012c-29.338-12.425-60.484-18.722-92.672-18.722-32.119 0-63.3 6.298-92.655 18.722-28.331 11.998-53.811 29.15-75.674 51.012s-39.1 47.326-51.063 75.691c-12.39 29.338-18.688 60.501-18.688 92.672s6.298 63.317 18.688 92.672c11.964 28.314 29.201 53.777 51.063 75.691 21.828 21.862 47.326 39.031 75.674 51.029 29.355 12.39 60.535 18.688 92.655 18.688 32.188 0 63.334-6.298 92.672-18.688 14.421-6.11 28.092-13.602 40.96-22.357 0 0 15.582 1.638 18.347 17.067s-18.347 28.757-18.347 28.757c-39.646 21.845-85.163 34.372-133.632 34.372-153.088 0-277.18-124.092-277.18-277.197s124.092-277.197 277.18-277.197c68.779 0 131.755 25.088 180.207 66.543l141.158-141.175c4.25-4.267 9.83-6.366 15.343-6.366 5.581 0 11.162 2.133 15.394 6.366 8.499 8.414 8.499 22.221 0 30.72z" />
<glyph unicode="&#xe910;" glyph-name="settings" d="M539.938 126.583h-55.893c-23.108 0-41.933 18.825-41.933 41.916l-6.11 54.46c-10.069 3.396-19.9 7.458-29.44 12.1l-43.93-35.174c-15.172-15.292-41.796-15.292-58.146 1.075l-39.509 39.492c-7.919 7.834-12.339 18.534-12.288 29.662 0 11.196 4.369 21.726 12.305 29.628l34.133 42.769c-4.693 9.54-8.738 19.371-12.1 29.474l-56.149 6.212c-21.572-0.017-40.294 18.756-40.294 41.813v55.876c0 23.108 18.807 41.916 41.933 41.916l54.477 6.11c3.413 10.189 7.458 20.019 12.1 29.44l-35.157 43.93c-6.878 6.758-11.247 17.323-11.247 28.535 0 11.145 4.352 21.692 12.271 29.628l39.543 39.509c7.851 7.902 18.517 12.305 29.662 12.271 11.213 0 21.709-4.369 29.662-12.271l42.786-34.133c9.37 4.642 19.234 8.67 29.372 12.066l0.87 7.936c1.331 7.595 8.585 12.698 16.196 11.401 6.963-1.212 11.93-7.441 11.588-14.507l-2.901-26.197-8.909-2.628c-14.302-4.13-28.092-9.813-41.182-16.913l-8.158-4.454-58.334 46.626c-3.772 3.669-7.27 5.137-11.008 5.137-3.703 0-7.27-1.485-9.899-4.096l-39.509-39.509c-5.461-5.444-5.461-14.302 0-19.746l47.684-59.426-4.437-8.175c-6.997-12.8-12.698-26.658-16.947-41.199l-2.628-8.909-74.325-8.243c-9.267-0.068-15.531-6.315-15.531-14.012v-55.893c0-7.714 6.263-13.961 13.978-13.961l75.878-8.363 2.628-8.892c4.147-14.302 9.83-28.092 16.947-41.165l4.471-8.175-46.677-58.3c-3.686-3.823-5.137-7.322-5.137-11.025 0-3.738 1.451-7.27 4.079-9.865l39.526-39.526c5.461-5.427 14.302-5.427 19.763 0l59.443 47.667 8.158-4.437c12.8-6.963 26.675-12.663 41.199-16.93l8.909-2.662 8.243-74.291c0.137-9.25 6.4-15.514 14.114-15.514h55.893c7.663 0 13.961 6.263 13.961 13.943l8.363 75.844 8.892 2.628c14.302 4.147 28.109 9.847 41.216 16.947l8.158 4.454 58.3-46.626c6.622-6.485 15.462-6.434 20.924-1.041l39.492 39.509c5.461 5.444 5.461 14.302 0 19.746l-47.667 59.46 4.471 8.175c6.929 12.663 12.629 26.505 16.93 41.199l2.628 8.892 74.308 8.26c9.233 0.085 15.514 6.366 15.514 14.046v55.876c0 7.714-6.246 13.961-13.978 13.961l-75.827 8.329-2.628 8.892c-4.164 14.302-9.83 28.092-16.93 41.199l-4.471 8.175 46.626 58.3c6.485 6.622 6.485 15.497 1.058 20.941l-39.509 39.526c-5.53 5.257-14.199 5.257-19.746 0l-59.46-47.701-8.175 4.471c-13.073 7.083-26.863 12.766-41.148 16.93l-8.909 2.628-8.26 74.308c-0.102 9.267-6.4 15.531-14.063 15.531h-55.893c-3.089 0-6.093-1.041-8.55-2.901-6.315-4.437-15.036-2.935-19.473 3.396-4.164 5.939-3.106 14.046 2.441 18.739 7.322 5.666 16.316 8.738 25.583 8.721h55.893c23.108 0 41.933-18.825 41.933-41.916l6.127-54.46c10.069-3.396 19.9-7.458 29.423-12.1l43.947 35.174c13.5 13.722 42.308 14.814 58.129-1.075l39.526-39.492c16.316-16.401 16.316-42.906 0-59.341l-34.116-42.786c4.625-9.387 8.67-19.217 12.083-29.44l56.183-6.212c21.521 0 40.209-18.807 40.209-41.847v-55.876c0-23.108-18.825-41.916-41.933-41.916l-54.477-6.127c-3.362-10.086-7.424-19.917-12.083-29.457l35.174-43.93c15.292-15.241 15.292-41.779-1.058-58.129l-39.509-39.492c-16.367-16.333-42.889-16.333-59.307 0l-42.786 34.133c-9.523-4.676-19.388-8.738-29.457-12.1l-6.229-56.047c0.051-21.555-18.756-40.38-41.882-40.38zM511.983 350.43c-61.662 0-111.804 50.142-111.804 111.804s50.142 111.804 111.804 111.804c61.679 0 111.787-50.142 111.787-111.804s-50.108-111.804-111.787-111.804zM511.983 546.082c-46.234 0-83.849-37.615-83.849-83.849s37.615-83.849 83.849-83.849c46.217 0 83.866 37.615 83.866 83.849s-37.649 83.849-83.866 83.849z" />
<glyph unicode="&#xe911;" glyph-name="shop" d="M138.018 809.694h690.893c23.501 0 41.489 18.005 41.489 41.506s-17.988 41.438-41.489 41.438h-690.893c-23.467 0-41.438-17.937-41.438-41.438s17.971-41.506 41.438-41.506zM241.664 555.964c0-64.905 53.879-118.835 120.235-118.835 66.321 0 121.6 52.497 121.6 118.835 0-64.905 53.879-118.835 120.201-118.835 66.338 0 120.218 52.497 120.218 118.835 0-39.27 19.661-74.462 50.227-96.205 11.827 1.775 23.927 2.645 36.267 2.645 29.764 0 58.3-5.274 84.77-14.882 42.121 18.466 71.936 59.733 71.936 108.442l-85.692 216.934h-798.669l-82.893-216.934c0-64.905 53.897-118.835 120.252-118.835 66.27 0 121.549 52.497 121.549 118.835v0zM562.944 215.006c0 49.596 14.592 95.829 39.765 134.537-53.743 0.7-99.738 33.894-118.562 80.691-19.337-47.258-66.526-80.708-121.583-80.708-54.443 0-101.188 33.468-120.235 80.708-19.319-47.258-66.492-80.708-121.549-80.708-13.005 0-25.481 1.963-37.342 5.495v-267.503c0-24.9 27.614-55.228 52.497-55.228h507.648c-49.527 45.175-80.64 110.302-80.64 182.716v0zM810.069 431.565c-118.272 0-214.084-95.898-214.084-214.101 0-118.238 95.812-214.101 214.084-214.101 118.255 0 214.084 95.863 214.084 214.101 0 118.204-95.829 214.101-214.084 214.101zM958.942 195.806h-127.266v-127.232h-43.264v127.232h-127.266v43.332h127.266v127.232h43.264v-127.232h127.266v-43.332z" />
<glyph unicode="&#xe912;" glyph-name="shopping-cart" d="M820.685 688.623c-9.045 2.833-18.978 3.942-28.553 3.994-75.827 0.307-151.654 0.171-227.55 0.171-77.073 0-154.095 0-231.1 0-1.997 0-3.994 0.051-6.007-0.051-12.646-0.717-22.306-12.868-20.207-25.344 0.256-1.673 0.7-3.277 1.246-4.745 10.308-38.144 20.599-76.305 30.908-114.449 8.397-31.13 16.742-62.293 25.242-93.389 2.304-8.448 8.397-14.353 15.906-16.247l-0.102-0.478c0.802 0 1.604 0 2.458 0 1.655-0.256 3.345-0.307 5.052-0.119 0.307 0.017 0.597 0.068 0.853 0.119 38.144-0.068 76.305-0.154 114.381-0.205 32.273-0.051 141.329-0.154 173.568-0.102 11.503 0 20.497 7.492 22.357 18.108 2.492 14.933-8.499 21.931-24.849 21.965-64.956 0.068-211.849-0.631-276.804-0.546-14.95 55.296-28.809 118.921-43.742 174.199 143.326 0 291.857 0.751 435.2 0.717 4.796 0 9.523-0.529 14.302-0.717 2.697-0.119 8.67-5.581 8.124-8.329-0.802-4.369-1.348-8.858-2.543-13.107-20.156-73.609-41.028-151.023-61.099-224.683-5.035-18.5-9.301-37.205-13.807-55.808-2.628-10.752-19.302-17.425-32.358-17.425-116.599 0-233.165 0-349.815 0-1.195 0-2.458 0-3.652 0.051-11.844 0.87-16.657 12.425-21.692 24.644-1.519 3.738-2.423 8.004-3.465 11.793-28.006 101.052-53.265 202.103-81.306 303.155-8.653 31.044-20.053 62.157-28.809 93.167-3.106 11.042-12.749 17.783-23.398 16.657-15.053-1.57-18.995-14.746-14.643-30.481 33.058-118.955 66.15-237.875 99.157-356.813 3.994-14.37 8.858-28.621 10.957-43.247 4.847-33.297 32.154-58.795 65.894-58.846 119.057-0.154 238.097-0.119 357.137 0 31.795 0.051 58.675 22.596 64.922 53.743 0.802 4.25 1.007 8.602 2.15 12.698 21.794 79.326 43.742 158.686 65.451 238.080 3.977 14.78 7.953 29.747 10.001 44.851 2.935 21.726-9.267 40.67-29.764 47.019zM413.286 247.774c-37.308 2.133-68.454-26.47-70.451-64.597-1.843-35.721 27.153-66.884 63.949-68.847 35.601-1.843 67.703 27.051 69.376 62.396 1.809 37.649-25.873 68.966-62.874 71.049zM409.429 151.586c-16.35 0.051-29.406 13.329-29.252 29.662 0.102 16.333 13.551 29.594 29.645 29.355 16.196-0.256 29.542-13.978 29.201-30.054-0.239-15.923-13.585-29.047-29.594-28.962zM663.177 247.842c-37.001 0.051-66.901-29.798-66.901-66.799 0-36.813 29.747-66.697 66.458-66.799 36.949-0.102 66.953 29.85 66.953 66.85 0 36.779-29.73 66.679-66.509 66.748zM662.835 151.586c-16.026 0.119-29.201 13.227-29.355 29.167-0.102 16.299 13.158 29.798 29.355 29.85 16.196 0.171 29.594-13.261 29.594-29.525 0-16.418-13.295-29.645-29.594-29.491z" />
<glyph unicode="&#xe913;" glyph-name="box-checked" d="M793.6 832h-563.2c-56.32 0-102.4-46.080-102.4-102.4v-563.2c0-56.32 46.080-102.4 102.4-102.4h563.2c56.32 0 102.4 46.080 102.4 102.4v563.2c0 56.32-46.080 102.4-102.4 102.4zM482.202 303.334l-31.155-31.181-203.571 203.546 31.155 31.155 172.39-172.339 319.462 319.437 31.155-31.155-319.437-319.462z" />
<glyph unicode="&#xe914;" glyph-name="box-unchecked" d="M793.6 780.8c28.237 0 51.2-22.963 51.2-51.2v-563.2c0-28.237-22.963-51.2-51.2-51.2h-563.2c-28.262 0-51.2 22.963-51.2 51.2v563.2c0 28.237 22.938 51.2 51.2 51.2h563.2zM793.6 832h-563.2c-56.32 0-102.4-46.080-102.4-102.4v-563.2c0-56.32 46.080-102.4 102.4-102.4h563.2c56.32 0 102.4 46.080 102.4 102.4v563.2c0 56.32-46.080 102.4-102.4 102.4v0z" />
<glyph unicode="&#xe915;" glyph-name="cross" d="M819.328 776.525l-307.328-307.328-307.328 307.328-21.171-21.197 307.302-307.328-307.302-307.328 21.171-21.197 307.328 307.328 307.328-307.328 21.171 21.197-307.302 307.328 307.302 307.328z" />
<glyph unicode="&#xe916;" glyph-name="eye-hide" d="M177.971 576.179c0-11.264 6.016-21.683 15.744-27.29 9.779-5.632 21.811-5.632 31.539 0s15.744 16.026 15.744 27.29c0 11.264-5.965 21.683-15.718 27.29s-21.786 5.632-31.539 0c-9.728-5.606-15.77-16.026-15.77-27.29v0zM296.934 211.789c-61.696-57.702-120.038-96.512-129.664-86.195-9.6 10.291 32.998 65.894 94.694 123.597l465.126 434.995c61.696 57.702 120.013 96.512 129.638 86.221 9.6-10.291-32.998-65.92-94.694-123.622l-465.101-434.995zM427.29 458.573c4.966 40.883 38.477 72.576 80.051 74.854l34.432 32.179c-0.896 15.821-13.747 28.467-29.747 28.467-80.461 0-145.946-65.51-145.946-145.92 0-14.362 2.176-28.134 6.016-41.19l55.194 51.61zM634.189 476.8l-37.043-34.662c-3.072-44.544-39.962-79.898-85.12-79.898-0.077 0-0.179 0.051-0.256 0.051l-53.248-49.792c16.589-6.579 34.611-10.291 53.504-10.291 80.435 0 145.894 65.408 145.894 145.818 0 14.362-10.24 25.779-23.731 28.774zM298.752 610.048c73.165 39.962 144.896 60.186 213.274 60.186 41.549 0 81.766-7.808 120.064-20.122l49.741 46.49c-52.582 20.454-109.722 33.664-169.83 33.664-78.618 0-160.102-22.682-242.074-67.584-14.515-7.91-19.814-26.189-11.93-40.755 7.936-14.464 26.24-19.917 40.755-11.878zM220.544 265.19l44.288 41.446c-80.333 50.406-141.414 111.258-169.216 141.466 12.57 13.747 31.898 33.843 56.678 56.141 12.314 11.162 13.235 30.106 2.227 42.419-11.162 12.39-30.106 13.286-42.445 2.278-49.562-44.774-78.438-80.461-79.744-81.869-8.96-11.034-8.96-26.854 0-37.862 5.018-6.195 76.544-93.082 186.803-165.35 0.486 0.461 0.896 0.896 1.408 1.331zM991.693 467.072c-5.069 6.272-77.952 94.771-190.003 167.45-8.704-8.806-18.048-17.946-28.595-27.853l-16.512-15.411c81.562-50.688 143.59-112.512 171.802-143.13-52.403-56.832-221.312-222.080-416.384-222.080-42.701 0-84.019 8.192-123.264 21.171l-49.613-46.413c53.427-21.12 111.59-34.867 172.877-34.867 263.296 0 470.938 252.442 479.642 263.194 9.011 11.085 9.011 26.906 0.051 37.939z" />
<glyph unicode="&#xe917;" glyph-name="eye-show" d="M480.486 448c0-11.264 6.016-21.683 15.744-27.29 9.779-5.632 21.811-5.632 31.514 0 9.754 5.632 15.744 16.026 15.744 27.29s-5.939 21.683-15.693 27.29c-9.754 5.606-21.786 5.632-31.539 0-9.728-5.606-15.77-16.026-15.77-27.29v0zM480.512 448c0-11.238 5.965-21.683 15.718-27.29 9.779-5.632 21.786-5.632 31.514 0 9.754 5.658 15.744 16.051 15.744 27.29s-5.99 21.683-15.744 27.29c-9.754 5.658-21.811 5.658-31.514 0-9.754-5.606-15.718-16.026-15.718-27.29v0zM991.667 466.944c-8.704 10.778-216.371 263.194-479.667 263.194-78.618 0-160.102-22.682-242.074-67.584-14.515-7.91-19.814-26.189-11.93-40.755 7.91-14.49 26.189-19.942 40.73-11.904 73.165 39.962 144.896 60.186 213.274 60.186 195.072 0 363.955-165.12 416.358-222.080-52.378-56.832-221.286-222.080-416.358-222.080-195.098 0-364.16 165.248-416.41 222.080 12.57 13.747 31.898 33.843 56.678 56.141 12.314 11.162 13.235 30.106 2.227 42.394-11.162 12.365-30.106 13.286-42.445 2.253-49.562-44.774-78.438-80.461-79.744-81.843-8.96-11.059-8.96-26.88 0-37.862 8.73-10.752 216.346-263.219 479.693-263.219 263.296 0 470.963 252.442 479.667 263.194 8.96 11.008 8.96 26.854 0 37.888v0zM512.026 533.76c16.563 0 30.080 13.466 30.080 30.080s-13.491 30.106-30.080 30.106c-80.461 0-145.946-65.51-145.946-145.92s65.51-145.971 145.946-145.971c80.435 0 145.894 65.408 145.894 145.843 0 16.589-13.466 30.080-30.080 30.080s-30.106-13.466-30.106-30.080c0-47.386-38.554-85.786-85.76-85.786-47.258 0-85.76 38.554-85.76 85.786-0.077 47.462 38.451 85.862 85.811 85.862v0z" />
<glyph unicode="&#xe918;" glyph-name="logo" d="M874.041 810.049c-96.71 96.703-225.282 149.959-362.045 149.959-136.756 0-265.328-53.256-362.038-149.959-96.703-96.71-149.959-225.282-149.959-362.052 0-136.756 53.256-265.335 149.959-362.038 96.71-96.703 225.282-149.966 362.038-149.966 136.763 0 265.335 53.256 362.045 149.966 96.71 96.703 149.966 225.282 149.966 362.038 0 136.771-53.256 265.342-149.966 362.052zM511.996 10.058c-187.196 0-347.307 118.075-409.844 283.643 42.255 7.907 84.912 15.053 126.019 27.165 77.715 22.901 153.594 50.703 214.42 108.084 71.49 67.46 77.203 173.335 11.952 234.11-59.509 55.413-159.219 63.693-227.476 18.886-47.141-30.932-66.261-80.984-48.75-127.584 18.403-48.94 74.753-81.665 127.152-73.831 35.087 5.23 54.865 23.64 51.888 48.26-2.794 23.004-20.363 29.601-58.39 28.848-12.529-0.256-30.318 8.229-36.776 18.396-10.182 15.982-1.039 32.797 14.577 43.791 31.13 21.906 89.089 16.45 116.393-10.679 27.195-27.034 30.632-74.906 0.563-106.811-22.704-24.079-51.676-44.522-81.496-59.151-70.188-34.407-146.894-47.792-223.724-58.485-3.445-0.475-6.634-1.075-9.596-1.829-3.182 21.255-4.849 43.008-4.849 65.127 0 241.49 196.463 437.946 437.939 437.946 241.49 0 437.946-196.456 437.946-437.946 0-21.826-1.631-43.286-4.725-64.271-1.024 0.19-2.070 0.366-3.167 0.505-23.618 2.992-47.156 6.634-70.539 11.089-73.926 14.051-146.294 32.893-210.002 75.345-40.368 26.895-58.368 70.554-46.175 109.73 10.694 34.37 38.517 52.436 82.418 56.262 16.691-5.493 36.367-7.307 49.145-17.635 10.277-8.331 17.635-27.4 16.523-40.894-1.565-19.010-20.553-22.272-37.793-21.694-4.213 0.139-8.39 1.368-12.625 1.894-20.999 2.64-38.43-3.796-44.383-25.044-6.334-22.557 6.883-37.705 26.171-46.878 41.209-19.602 112.129 2.743 138.972 43.045 30.12 45.232 22.96 103.227-18.366 138.665-51.698 44.303-111.449 51.047-175.113 33.924-76.625-20.597-123.693-86.997-114.864-164.924 6.685-59.019 42.087-101.048 89.096-134.006 92.512-64.871 198.504-91.298 307.166-109.869-62.684-165.333-222.663-283.182-409.683-283.182z" />
<glyph unicode="&#xe919;" glyph-name="msg" d="M908.006 408.397h51.2v-49.997h-51.2v49.997zM908.006 281.19v-76.365c0-28.237-22.938-51.2-51.2-51.2h-689.613c-28.237 0-51.2 22.963-51.2 51.2v446.208l295.194-225.613v-0.358h202.010v0.64l294.81 225.331v-165.427h51.2v205.594c0 56.32-46.054 102.4-102.4 102.4h-689.613c-56.32 0-102.4-46.080-102.4-102.4v-486.4c0-56.32 46.080-102.4 102.4-102.4h689.613c56.346 0 102.4 46.080 102.4 102.4v76.39h-51.2zM167.194 742.4h689.613c20.813 0 38.733-12.544 46.694-30.413l-308.454-235.725h-166.093l-308.454 235.725c7.987 17.894 25.882 30.413 46.694 30.413z" />
<glyph unicode="&#xe91a;" glyph-name="cash-logo" d="M512 960c-282.767 0-512-229.233-512-512s229.233-512 512-512c282.757 0 512 229.233 512 512s-229.243 512-512 512zM492.831 613.151h152.986v-198.328h-12.554v186.163h-127.529v-186.163h-12.902v198.328zM347.218 359.895c17.93 3.666 35.758 8.1 53.453 13.261v104.335h-47.923v12.544h47.923v99.533h-52.716v12.165h117.228v-12.165h-51.978v-99.533h46.817v-12.544h-46.817v-100.639c19.661 6.39 37.356 12.78 53.084 19.169v-12.534c-35.154-14.008-73.851-25.928-116.122-35.758l-2.949 12.165zM573.932 476.764c-0.492-48.425-9.708-87.009-27.648-115.763-17.695-26.778-46.817-48.036-87.368-63.785l-7.373 11.059c39.567 14.735 68.198 35.523 85.893 62.3 15.974 27.279 24.084 62.679 24.32 106.179v92.897h12.165l0.010-92.887zM667.197 310.856c-5.161-5.642-13.281-8.479-24.34-8.479h-38.697c-15.483 0-23.224 7.496-23.224 22.497v91.423h12.534v-88.842c0-8.602 4.792-12.923 14.367-12.923h32.44c8.858 0 14.735 2.089 17.705 6.267 4.659 6.39 7.741 22.487 9.216 48.292l11.796-3.676c-1.976-28.744-5.898-46.909-11.796-54.559z" />
<glyph unicode="&#xe91b;" glyph-name="lock" d="M806.4 583.578h-48.538v50.483h-51.2v-50.483h-383.616v87.27c0 112.922 86.042 204.8 191.795 204.8 53.683 0 102.221-23.808 137.037-61.875h64.128c-43.597 68.122-117.402 113.075-201.139 113.075-133.99 0-242.995-114.842-242.995-256v-87.27h-54.272c-56.55 0-102.4-45.85-102.4-102.4v-409.626c0-56.55 45.85-102.4 102.4-102.4h588.8c56.55 0 102.4 45.85 102.4 102.4v409.626c0 56.55-45.85 102.4-102.4 102.4zM857.6 71.603c0-28.262-22.938-51.2-51.2-51.2h-588.8c-28.237 0-51.2 22.938-51.2 51.2v409.6c0 28.237 22.963 51.2 51.2 51.2h588.8c28.262 0 51.2-22.963 51.2-51.2v-409.6zM687.002 760.986c7.168-15.514 12.544-32.179 15.846-49.613h51.661c-2.611 17.178-6.963 33.715-12.698 49.613h-54.81zM656 322.842c0 70.707-57.293 128-128 128s-128-57.293-128-128c0-62.029 44.109-113.638 102.656-125.44v-100.941h50.79v100.992c58.496 11.776 102.554 63.411 102.554 125.389zM528 246.042c-42.342 0-76.8 34.458-76.8 76.8s34.458 76.8 76.8 76.8c42.342 0 76.8-34.458 76.8-76.8s-34.458-76.8-76.8-76.8z" />
<glyph unicode="&#xe91c;" glyph-name="book" d="M366.925 816.794h299.213v-51.2h-299.213v51.2zM819.2 551.194h51.2v-51.2h-51.2v51.2zM819.2 244.787h-614.4v587.213c0 28.262 22.963 51.2 51.2 51.2h512c28.237 0 51.2-22.938 51.2-51.2v-204.8h51.2v204.8c0 56.32-46.080 102.4-102.4 102.4h-512c-56.32 0-102.4-46.080-102.4-102.4v-768c0-56.294 46.080-102.4 102.4-102.4h512c56.32 0 102.4 46.106 102.4 102.4v358.4h-51.2v-177.613zM819.2 64c0-28.211-22.963-51.2-51.2-51.2h-512c-28.237 0-51.2 22.989-51.2 51.2v129.613h614.4v-129.613z" />
<glyph unicode="&#xe91d;" glyph-name="invitation" d="M449.041 226.492c0 146.876 100.267 270.421 236.1 305.766 10.001 34.338 15.428 70.195 15.428 106.24 0 174.473-127.334 285.594-284.382 285.594-157.013 0-284.348-111.155-284.348-285.594 0-98.935 40.926-196.966 104.96-263.339h-0.034c0 0 54.596-60.126 20.395-76.169-147.268-45.227-250.59-151.108-250.59-274.432 0-36.403 205.397-52.668 410.778-52.668 53.163 0 106.359 1.092 156.041 3.345-75.588 57.737-124.348 148.804-124.348 251.255zM764.621 479.061c-139.605 0-252.757-113.169-252.757-252.74 0-139.622 113.152-252.809 252.757-252.809 139.588 0 252.809 113.186 252.809 252.809-0.034 139.571-113.22 252.74-252.809 252.74zM922.59 194.748h-126.379v-126.396h-63.164v126.396h-126.396v63.198h126.396v126.345h63.164v-126.345h126.379v-63.198z" />
<glyph unicode="&#xe91e;" glyph-name="auth" d="M512 918.067v-36.454 38.059c-91.477-163.328-396.885-157.73-396.885-157.73l26.897-570.453c43.076-190.72 369.988-213.538 369.988-213.538v4.796-6.434c0 0 326.912 22.835 369.971 213.504l26.897 570.505c0.034 0.017-305.374-5.598-396.868 157.747v0zM453.376 235.11l-186.761 186.743 67.635 67.686 125.815-125.764 236.322 236.322 60.996-60.996-304.009-303.991z" />
<glyph unicode="&#xe91f;" glyph-name="light" d="M107.418 555.059c0 106.445 39.543 197.274 117.982 273.408 78.507 76.1 173.858 113.988 285.508 113.988 111.701 0 207.036-37.888 286.566-113.988 79.565-76.134 119.108-166.929 119.108-273.408 0-14.592-0.546-29.662-2.116-44.39-2.611-2.509-2.15-7.578-2.15-10.035l-6.298-36.318c-2.628 0-2.082-3.635-2.082-6.042-3.755-12.271-7.97-24.354-12.646-36.301v-2.031l-2.099-2.031c-5.803-14.609-11.059-27.767-16.896-38.298 0-1.468-0.461-2.031-2.031-2.031-6.844-13.295-14.592-26.095-23.194-38.332-8.602-12.476-17.766-24.593-27.426-36.335l-0.99-0.99-1.109-1.041c-8.397-9.557-18.381-18.688-29.474-28.211 0 0-1.075-0.563-3.157-2.031-5.325-3.499-5.786-6.588-11.622-12.117-2.628 0-6.332-1.468-6.332-4.079l-20.002-15.036-4.233-3.038-3.14-2.014c-12.646-9.557-21.641-20.19-27.392-32.256-5.803-12.151-11.042-20.702-16.879-26.3-5.82-5.564-16.299-8.004-31.642-8.004h-303.377c-15.326 0-25.839 2.441-31.625 8.004-5.82 5.598-11.588 14.148-17.92 26.3-6.69 12.322-15.633 23.228-26.334 32.256-1.604 0-2.662 0.478-4.25 2.014l-3.14 3.038-20.019 15.036-6.298 4.079-8.465 8.090-6.281 6.059-31.625 30.242c-19.507 24.166-36.335 47.906-50.603 74.667-1.553 0-2.099 0.495-2.099 2.031-5.786 10.53-11.008 23.689-16.828 38.298-1.587 0-2.099 0.512-2.099 2.031v2.031c-4.676 11.913-8.909 24.047-12.663 36.301 0 0-0.512 1.024-1.041 3.021l-1.058 3.038c-2.884 11.964-5.001 24.098-6.298 36.335 0 2.458-2.133 7.492-2.133 9.984-1.468 14.746-2.167 29.577-2.099 44.407zM345.532 126.242h337.152c19.456 0 33.707-13.705 33.707-32.358 0-18.705-14.251-32.273-33.707-32.273h-337.152c-19.507 0-33.724 13.568-33.724 32.273 0.017 18.671 14.234 32.358 33.724 32.358zM360.294 20.087h305.493l-124.314-60.433c-19.558-8.124-41.574-8.124-61.133 0l-120.047 60.433zM547.806 748.732c40.602 0 79.036-15.599 114.842-47.428 35.84-31.659 53.726-71.031 53.726-117.982 0-16.111 14.199-32.324 33.724-32.324 19.507 0 33.758 16.196 33.758 32.324 0 70.11-23.723 125.645-71.663 167.458-47.974 41.796-102.758 62.532-164.369 62.532-19.524 0-33.707-13.653-33.707-32.29-0.017-18.688 14.165-32.29 33.69-32.29z" />
<glyph unicode="&#xe920;" d="M512 929.882c265.035 0 481.882-216.847 481.882-481.882s-216.847-481.882-481.882-481.882-481.882 216.847-481.882 481.882 216.847 481.882 481.882 481.882z" />
<glyph unicode="&#xe921;" d="M512-64c-283.106 0-512 228.894-512 512s228.894 512 512 512 512-228.894 512-512-228.894-512-512-512zM512 899.765c-246.965 0-451.765-204.8-451.765-451.765s204.8-451.765 451.765-451.765c252.988 0 451.765 204.8 451.765 451.765s-198.776 451.765-451.765 451.765z" />
<glyph unicode="&#xe922;" glyph-name="checked" d="M512 950.912c-276.832 0-501.248-225.184-501.248-502.912 0-277.76 224.416-502.912 501.248-502.912 276.8 0 501.248 225.152 501.248 502.912 0 277.728-224.448 502.912-501.248 502.912zM857.824 602.624l-360.224-360.128c-14.048-14.016-36.8-14.016-50.88 0l-214.016 214.048c-14.048 13.92-14.048 36.832 0 50.88 14.016 14.048 36.8 14.048 50.88 0l187.136-189.888 336.16 335.968c14.048 14.016 36.864 14.016 50.944 0 13.984-14.080 13.984-36.832 0-50.88z" />
<glyph unicode="&#xe923;" glyph-name="about-us" d="M512-48.708c-274.125 0-496.64 222.549-496.64 496.708 0 274.193 222.515 496.708 496.64 496.708s496.64-222.515 496.64-496.708c0-274.142-222.498-496.708-496.64-496.708zM365.705 515.601l-9.762-42.24c7.1 2.901 15.77 5.854 25.771 8.994 10.086 3.106 19.951 4.608 29.508 4.608 19.507 0 32.631-3.362 39.578-10.308 6.844-6.758 10.342-19.029 10.342-36.489 0-9.677-1.109-20.412-3.328-32.188-2.475-12.459-5.274-24.883-8.329-37.239l-37.069-136.806c-3.004-12.732-5.393-25.634-7.202-38.554-1.468-11.162-2.15-22.357-2.167-33.587 0-28.109 9.865-51.268 29.764-69.495 19.9-18.33 47.77-27.477 83.695-27.477 23.279 0 43.776 3.209 61.406 9.643 17.732 6.417 41.301 15.65 70.895 27.836l9.933 42.138c-5.154-2.441-13.329-5.342-24.661-8.602-11.401-3.226-21.504-5.018-30.498-5.018-19.132 0-32.563 3.379-40.294 9.916-7.782 6.605-11.639 18.842-11.639 37.018 0 7.185 1.161 17.852 3.567 31.846 2.441 13.995 5.12 26.573 8.107 37.461l36.898 136.363c3.806 13.449 6.281 27.273 7.441 41.199 1.331 14.985 1.997 25.481 1.997 31.403 0 28.74-9.728 52.105-28.962 70.042-19.337 18.039-46.797 26.931-82.432 26.931-19.746 0-40.67-3.635-62.891-11.042-23.569-7.748-46.797-16.623-69.666-26.351v0zM642.338 777.506c-17.186 16.896-37.973 25.276-62.14 25.276s-45.073-8.38-62.396-25.276c-17.254-16.794-25.993-37.239-25.993-60.928 0-23.774 8.772-43.947 25.993-60.638 17.374-16.708 38.229-25.037 62.396-25.037s44.954 8.294 62.14 25.037c17.135 16.691 25.805 36.864 25.805 60.638-0.017 23.689-8.67 44.083-25.805 60.928z" />
<glyph unicode="&#xe924;" glyph-name="success" d="M511.992 901.36c-250.376 0-453.36-202.968-453.36-453.36s202.984-453.36 453.36-453.36c250.392 0 453.376 202.968 453.376 453.36s-202.984 453.36-453.376 453.36zM785.504 578.976l-317.664-317.664c-3.832-3.84-9.040-6-14.472-6s-10.64 2.16-14.472 6l-171.608 171.608c-7.992 7.984-7.992 20.952 0 28.944s20.952 8 28.944 0l157.144-157.144 303.184 303.2c7.992 7.992 20.952 7.992 28.944 0s8-20.952 0-28.944z" />
<glyph unicode="&#xe925;" glyph-name="shop-tel" d="M844.608 543.264c-88.576 147.424-197.92 238.080-331.264 238.080-132 0-246.304-91.52-331.232-238.080s-152.928-263.936-152.928-263.936c-63.936-150.016 17.152-272.736 180.256-272.736h607.84c163.072 0 244.16 122.752 180.256 272.736-0.032 0-64.448 116.48-152.928 263.936v0zM513.344 275.776c-114.88 0-208 93.088-208 207.968s93.12 208 208 208c114.88 0 208-93.12 208-208s-93.12-207.968-208-207.968v0zM52.096 552.32c38.208-23.712 83.616 8.512 91.584 29.408 52.352 136.992 181.152 236.928 336.672 245.6v-0.064c21.248 1.664 42.624 1.664 63.872 0 155.232-8.896 283.744-108.704 336.064-245.536 7.936-20.896 53.376-53.12 91.552-29.376 45.184 28.064 79.712 129.984 21.088 213.472-40.32 57.504-199.552 121.952-444.448 122.72v0.064c-24 1.12-48 1.12-71.968 0v-0.064c-245.472-0.608-405.056-65.184-445.472-122.752-58.624-83.552-24.096-185.44 21.056-213.472v0z" />
<glyph unicode="&#xe926;" glyph-name="shop-address" d="M938.368 536c0 234.176-190.944 424-426.368 424-235.488 0-426.4-189.824-426.4-424 0-7.392 0.704-14.624 1.12-21.888-0.384-3.584-1.12-7.040-1.12-10.752 0-260.928 393.568-556.512 393.568-556.512s32.8-24.512 65.632 0c32.736 24.448 393.568 295.552 393.568 556.512 0 3.712-0.736 7.168-1.12 10.752 0.384 7.264 1.12 14.528 1.12 21.888zM512 372.928c-90.592 0-164 72.992-164 163.072 0 90.048 73.408 163.072 164 163.072s163.968-73.024 163.968-163.072c-0.032-90.048-73.408-163.072-163.968-163.072z" />
<glyph unicode="&#xe927;" glyph-name="id-card" d="M908.006 408.397h51.2v-49.997h-51.2v49.997zM959.206 485.606v205.594c0 56.32-46.054 102.4-102.4 102.4h-689.613c-56.32 0-102.4-46.080-102.4-102.4v-486.4c0-56.32 46.080-102.4 102.4-102.4h689.613c56.346 0 102.4 46.080 102.4 102.4v76.39h-51.2v-76.365c0-28.237-22.938-51.2-51.2-51.2h-689.613c-28.237 0-51.2 22.963-51.2 51.2v446.208l4.275 61.363h0.486c8.090 17.664 25.83 30.003 46.438 30.003h689.613c20.813 0 38.758-12.544 46.694-30.413l0.102 0.077 4.403-61.030v-165.427h51.2zM160.077 102.4h55.552c51.738 112.179 164.941 190.413 296.346 190.413s244.685-78.234 296.346-190.413h55.603c-40.192 103.424-124.595 184.96-230.016 221.030 59.392 36.48 99.302 101.862 99.302 176.563 0 114.253-92.979 207.206-207.232 207.206s-207.206-92.954-207.206-207.206c0-70.758 35.738-133.299 90.010-170.675-114.125-32.512-206.157-117.478-248.704-226.918zM369.971 499.994c0 86.016 69.99 156.006 156.006 156.006s156.032-69.965 156.032-156.006c0-86.016-69.939-156.006-156.032-156.006-86.016 0-156.006 69.99-156.006 156.006z" />
<glyph unicode="&#xe928;" glyph-name="consume-logo" d="M480.666 515.461h161.833v-54.917h-161.833v54.917zM512 960c-282.767 0-512-229.233-512-512s229.233-512 512-512c282.757 0 512 229.233 512 512s-229.243 512-512 512zM356.065 534.262c28.508-18.678 51.978-37.11 70.41-55.286l-8.847-8.479c-17.203 16.712-40.55 35.144-70.042 55.286l8.479 8.479zM367.493 299.796l-12.165 5.171c25.303 44.483 47.053 89.569 65.249 135.291l11.059-4.424c-19.169-48.179-40.55-93.512-64.143-136.038zM432.005 557.865c-18.924 18.924-43.254 38.328-72.991 58.245l9.216 8.479c29.491-19.415 53.821-38.707 72.991-57.876l-9.216-8.847zM467.026 616.1c16.466-19.415 31.703-40.55 45.711-63.396l-11.059-5.171c-14.746 24.095-29.993 45.097-45.711 63.037l11.059 5.53zM655.032 327.076c0-18.176-8.612-27.279-25.805-27.279h-51.251l-3.676 12.544 50.504-0.369c11.796 0 17.705 6.031 17.705 18.074v54.917h-161.843v-86.979h-12.534v230.011h86.63v105.431h12.534v-105.431h87.706l0.031-200.919zM621.117 548.27l-11.059 5.161c17.94 23.101 31.939 45.711 42.025 67.83l11.059-5.161c-10.824-23.347-24.822-45.957-42.025-67.83zM480.666 449.106h161.833v-52.347h-161.833v52.347z" />
</font>
</defs>
</svg>
